<?xml version="1.0" encoding="UTF-8"?>
<svg width="138px" height="90px" viewBox="0 0 138 90" version="1.1" xmlns="http://www.w3.org/2000/svg" xmlns:xlink="http://www.w3.org/1999/xlink">
    <!-- Generator: sketchtool 61 (101010) - https://sketch.com -->
    <title>407605EC-D4DD-45F1-A0DE-86845DFAB3E7</title>
    <desc>Created with sketchtool.</desc>
    <g id="Huisstijl" stroke="none" stroke-width="1" fill="none" fill-rule="evenodd">
        <g id="Style-Guide-Dashboard" transform="translate(-316.000000, -589.000000)">
            <g id="Style-Guide/Branding" transform="translate(80.000000, 360.000000)">
                <g id="Style-Guide/Branding/Logo" transform="translate(0.000000, 92.000000)">
                    <g id="Branding/Logo/Dark" transform="translate(236.000000, 137.000000)">
                        <path d="M40.1255,45.992 C37.5895,45.953 35.5315,45.679 33.9515,45.173 C32.3725,44.667 31.1235,43.954 30.2075,43.037 C29.2905,42.121 28.6655,41.009 28.3345,39.702 C28.0025,38.395 27.8375,36.923 27.8375,35.284 L27.8375,1.404 L36.5565,0 L36.5565,33.529 C36.5565,34.309 36.6145,35.011 36.7325,35.635 C36.8485,36.259 37.0735,36.786 37.4055,37.215 C37.7365,37.644 38.2135,37.996 38.8385,38.268 C39.4615,38.542 40.3015,38.717 41.3545,38.795 L40.1255,45.992 Z M16.6035,0 C18.2405,0 19.5965,0.137 20.6695,0.41 C21.7415,0.683 22.6495,0.975 23.3905,1.288 L21.8685,8.134 C21.2445,7.861 20.5525,7.666 19.7915,7.549 C19.0305,7.431 18.2605,7.373 17.4805,7.373 C16.4275,7.373 15.5395,7.519 14.8185,7.811 C14.0965,8.104 13.5305,8.505 13.1215,9.011 C12.7115,9.518 12.4195,10.123 12.2435,10.825 C12.0685,11.527 11.9805,12.288 11.9805,13.107 L11.9805,14.629 L22.7465,14.629 L22.7465,21.884 L11.9805,21.884 L11.9805,45.407 L3.2615,45.407 L3.2615,12.99 C3.2615,9.011 4.3825,5.851 6.6265,3.511 C8.8685,1.171 12.1945,0 16.6035,0 L16.6035,0 Z" id="Fill-1" fill="#FFFFFF"></path>
                        <path d="M66.2225,29.96 C66.2225,27.267 65.6855,25.152 64.6135,23.61 C63.5395,22.07 62.0085,21.3 60.0195,21.3 C58.0305,21.3 56.4885,22.07 55.3975,23.61 C54.3045,25.152 53.7585,27.267 53.7585,29.96 C53.7585,32.651 54.3045,34.787 55.3975,36.367 C56.4885,37.946 58.0305,38.736 60.0195,38.736 C62.0085,38.736 63.5395,37.946 64.6135,36.367 C65.6855,34.787 66.2225,32.651 66.2225,29.96 Z M75.1155,29.96 C75.1155,32.379 74.7655,34.592 74.0635,36.6 C73.3615,38.61 72.3455,40.326 71.0205,41.75 C69.6935,43.175 68.1035,44.276 66.2505,45.055 C64.3985,45.836 62.3215,46.226 60.0195,46.226 C57.7565,46.226 55.6985,45.836 53.8465,45.055 C51.9925,44.276 50.4035,43.175 49.0765,41.75 C47.7505,40.326 46.7165,38.61 45.9765,36.6 C45.2345,34.592 44.8635,32.379 44.8635,29.96 C44.8635,27.541 45.2445,25.337 46.0055,23.347 C46.7665,21.358 47.8195,19.661 49.1645,18.257 C50.5105,16.852 52.1095,15.76 53.9635,14.979 C55.8155,14.2 57.8345,13.809 60.0195,13.809 C62.2425,13.809 64.2805,14.2 66.1345,14.979 C67.9865,15.76 69.5765,16.852 70.9035,18.257 C72.2295,19.661 73.2625,21.358 74.0045,23.347 C74.7445,25.337 75.1155,27.541 75.1155,29.96 L75.1155,29.96 Z" id="Fill-2" fill="#FFFFFF"></path>
                        <path d="M93.6075,39.321 C94.4645,39.321 95.2835,39.302 96.0645,39.263 C96.8445,39.224 97.4685,39.166 97.9375,39.088 L97.9375,32.475 C97.5855,32.397 97.0595,32.32 96.3575,32.241 C95.6545,32.164 95.0115,32.125 94.4265,32.125 C93.6075,32.125 92.8365,32.174 92.1145,32.27 C91.3925,32.369 90.7595,32.554 90.2135,32.827 C89.6665,33.099 89.2385,33.47 88.9255,33.938 C88.6135,34.406 88.4575,34.992 88.4575,35.694 C88.4575,37.059 88.9155,38.005 89.8325,38.532 C90.7485,39.058 92.0065,39.321 93.6075,39.321 Z M92.9045,13.809 C95.4795,13.809 97.6245,14.102 99.3415,14.687 C101.0575,15.272 102.4325,16.112 103.4665,17.203 C104.4995,18.296 105.2315,19.623 105.6605,21.182 C106.0895,22.743 106.3045,24.479 106.3045,26.39 L106.3045,44.529 C105.0555,44.802 103.3205,45.125 101.0965,45.495 C98.8735,45.865 96.1815,46.05 93.0225,46.05 C91.0315,46.05 89.2275,45.875 87.6095,45.524 C85.9895,45.173 84.5955,44.597 83.4255,43.798 C82.2555,42.999 81.3575,41.955 80.7345,40.668 C80.1095,39.38 79.7975,37.8 79.7975,35.927 C79.7975,34.134 80.1575,32.612 80.8805,31.364 C81.6015,30.116 82.5675,29.121 83.7775,28.38 C84.9855,27.638 86.3705,27.102 87.9315,26.77 C89.4905,26.439 91.1105,26.273 92.7875,26.273 C93.9185,26.273 94.9235,26.322 95.8015,26.419 C96.6795,26.517 97.3905,26.644 97.9375,26.8 L97.9375,25.98 C97.9375,24.498 97.4875,23.308 96.5915,22.411 C95.6935,21.514 94.1335,21.065 91.9095,21.065 C90.4275,21.065 88.9645,21.173 87.5215,21.387 C86.0775,21.602 84.8295,21.904 83.7775,22.294 L82.6645,15.272 C83.1715,15.117 83.8065,14.951 84.5665,14.775 C85.3265,14.599 86.1555,14.444 87.0535,14.306 C87.9495,14.171 88.8965,14.053 89.8915,13.956 C90.8865,13.859 91.8905,13.809 92.9045,13.809 L92.9045,13.809 Z" id="Fill-3" fill="#FFFFFF"></path>
                        <path d="M113.9105,6.964 L122.6295,5.559 L122.6295,14.629 L133.1035,14.629 L133.1035,21.884 L122.6295,21.884 L122.6295,32.71 C122.6295,34.544 122.9505,36.007 123.5945,37.098 C124.2375,38.19 125.5345,38.736 127.4865,38.736 C128.4215,38.736 129.3875,38.648 130.3825,38.473 C131.3765,38.298 132.2835,38.054 133.1035,37.742 L134.3315,44.529 C133.2785,44.959 132.1085,45.329 130.8205,45.641 C129.5335,45.953 127.9535,46.109 126.0815,46.109 C123.7015,46.109 121.7315,45.787 120.1715,45.143 C118.6115,44.5 117.3625,43.603 116.4265,42.452 C115.4895,41.301 114.8365,39.907 114.4665,38.268 C114.0955,36.63 113.9105,34.816 113.9105,32.827 L113.9105,6.964" id="Fill-4" fill="#FFFFFF"></path>
                        <polygon id="Fill-5" fill="#2DAAE1" points="81.6005 88.647 88.1845 88.647 88.1845 59.399 81.6005 59.399"></polygon>
                        <path d="M108.8635,77.506 C108.8635,75.564 108.4775,74.038 107.7035,72.926 C106.9295,71.815 105.8255,71.259 104.3905,71.259 C102.9555,71.259 101.8435,71.815 101.0565,72.926 C100.2685,74.038 99.8745,75.564 99.8745,77.506 C99.8745,79.447 100.2685,80.987 101.0565,82.127 C101.8435,83.266 102.9555,83.836 104.3905,83.836 C105.8255,83.836 106.9295,83.266 107.7035,82.127 C108.4775,80.987 108.8635,79.447 108.8635,77.506 Z M115.2785,77.506 C115.2785,79.25 115.0265,80.846 114.5195,82.296 C114.0135,83.745 113.2805,84.983 112.3245,86.009 C111.3675,87.037 110.2215,87.832 108.8855,88.394 C107.5485,88.957 106.0505,89.238 104.3905,89.238 C102.7585,89.238 101.2745,88.957 99.9385,88.394 C98.6015,87.832 97.4545,87.037 96.4975,86.009 C95.5415,84.983 94.7955,83.745 94.2615,82.296 C93.7265,80.846 93.4595,79.25 93.4595,77.506 C93.4595,75.76 93.7345,74.171 94.2825,72.736 C94.8305,71.301 95.5905,70.077 96.5615,69.064 C97.5315,68.051 98.6855,67.264 100.0225,66.701 C101.3585,66.138 102.8145,65.857 104.3905,65.857 C105.9935,65.857 107.4645,66.138 108.8005,66.701 C110.1365,67.264 111.2835,68.051 112.2405,69.064 C113.1965,70.077 113.9425,71.301 114.4775,72.736 C115.0115,74.171 115.2785,75.76 115.2785,77.506 L115.2785,77.506 Z" id="Fill-6" fill="#2DAAE1"></path>
                        <polyline id="Fill-7" fill="#2DAAE1" points="137.1835 59.399 137.1835 65.012 128.3625 65.012 128.3625 88.647 121.7785 88.647 121.7785 65.012 112.9575 65.012 112.9575 59.399 137.1835 59.399"></polyline>
                        <path d="M66.3475,61.941 C65.9205,62.245 55.7885,69.319 48.7645,62.293 C48.2615,61.79 47.7645,61.333 47.2715,60.898 C45.2455,59.111 43.2955,57.868 41.4255,57.068 C36.5585,54.985 32.2365,55.871 28.5785,57.828 C26.4935,58.943 24.6255,60.401 22.9945,61.855 C22.8705,61.965 22.7465,62.074 22.6265,62.184 L22.5125,62.293 C20.2485,64.556 17.3415,65.848 14.3255,65.93 C11.1275,66.009 8.1585,64.759 5.6925,62.293 C4.3915,60.991 2.2795,60.991 0.9765,62.293 C-0.3255,63.595 -0.3255,65.706 0.9765,67.009 C4.5955,70.628 9.2135,72.604 14.0275,72.604 C14.1865,72.604 14.3475,72.601 14.5075,72.597 C19.2075,72.468 23.7015,70.506 27.1685,67.068 C27.2135,67.028 27.2545,66.994 27.2995,66.954 C29.9905,64.537 32.2925,63.125 34.4805,62.697 C35.0935,62.577 35.6995,62.536 36.3015,62.572 C38.5825,62.709 40.8275,63.968 43.3575,66.349 C43.5865,66.565 43.8145,66.774 44.0485,67.009 C48.6865,71.646 54.7715,73.135 61.6415,71.313 C66.5065,70.023 70.0905,67.464 70.2405,67.355 C71.7315,66.28 72.0675,64.205 70.9955,62.712 C69.9265,61.218 67.8445,60.874 66.3475,61.941" id="Fill-8" fill="#2DAAE1"></path>
                        <path d="M14.1025,88.646 C9.4095,88.646 4.7175,86.775 0.9765,83.033 C-0.3255,81.732 -0.3255,79.62 0.9765,78.318 C2.2785,77.015 4.3915,77.015 5.6925,78.318 C11.2145,83.839 18.3335,82.498 22.5125,78.318 L22.6265,78.209 C28.4785,72.886 37.5545,67.108 48.7645,78.318 C55.7885,85.344 65.9205,78.27 66.3475,77.966 C67.8445,76.899 69.9265,77.243 70.9955,78.737 C72.0675,80.231 71.7315,82.306 70.2405,83.381 C70.0905,83.488 66.5065,86.048 61.6415,87.338 C54.7715,89.16 48.6865,87.673 44.0485,83.033 C38.0755,77.062 33.8095,77.074 27.1685,83.093 C23.4375,86.796 18.7705,88.646 14.1025,88.646" id="Fill-9" fill="#2DAAE1"></path>
                    </g>
                </g>
            </g>
        </g>
    </g>
</svg>